<mxfile host="app.diagrams.net" modified="2020-12-15T17:07:09.254Z" agent="5.0 (Windows NT 10.0; Win64; x64) AppleWebKit/537.36 (KHTML, like Gecko) Chrome/87.0.4280.88 Safari/537.36" etag="_4SpHr1Ixrh73X5XBpVm" version="13.10.8" type="github">
  <diagram id="L_XgjYD24hih35gLv_E4" name="PÃ¡gina-1">
    <mxGraphModel dx="700" dy="336" grid="1" gridSize="10" guides="1" tooltips="1" connect="1" arrows="1" fold="1" page="1" pageScale="1" pageWidth="880" pageHeight="600" math="0" shadow="0">
      <root>
        <mxCell id="0" />
        <mxCell id="1" parent="0" />
        <mxCell id="BsdPuGOq0RU-ons4GqNr-1" value="Clientes" style="shape=table;startSize=30;container=1;collapsible=1;childLayout=tableLayout;fixedRows=1;rowLines=0;fontStyle=1;align=center;resizeLast=1;fillColor=#e1d5e7;strokeColor=#330066;" vertex="1" parent="1">
          <mxGeometry x="120" y="80" width="160" height="160" as="geometry" />
        </mxCell>
        <mxCell id="BsdPuGOq0RU-ons4GqNr-2" value="" style="shape=partialRectangle;collapsible=0;dropTarget=0;pointerEvents=0;fillColor=none;top=0;left=0;bottom=1;right=0;points=[[0,0.5],[1,0.5]];portConstraint=eastwest;" vertex="1" parent="BsdPuGOq0RU-ons4GqNr-1">
          <mxGeometry y="30" width="160" height="30" as="geometry" />
        </mxCell>
        <mxCell id="BsdPuGOq0RU-ons4GqNr-3" value="PK" style="shape=partialRectangle;connectable=0;fillColor=none;top=0;left=0;bottom=0;right=0;fontStyle=1;overflow=hidden;" vertex="1" parent="BsdPuGOq0RU-ons4GqNr-2">
          <mxGeometry width="30" height="30" as="geometry" />
        </mxCell>
        <mxCell id="BsdPuGOq0RU-ons4GqNr-4" value="ID" style="shape=partialRectangle;connectable=0;fillColor=none;top=0;left=0;bottom=0;right=0;align=left;spacingLeft=6;fontStyle=5;overflow=hidden;" vertex="1" parent="BsdPuGOq0RU-ons4GqNr-2">
          <mxGeometry x="30" width="130" height="30" as="geometry" />
        </mxCell>
        <mxCell id="BsdPuGOq0RU-ons4GqNr-5" value="" style="shape=partialRectangle;collapsible=0;dropTarget=0;pointerEvents=0;fillColor=none;top=0;left=0;bottom=0;right=0;points=[[0,0.5],[1,0.5]];portConstraint=eastwest;" vertex="1" parent="BsdPuGOq0RU-ons4GqNr-1">
          <mxGeometry y="60" width="160" height="20" as="geometry" />
        </mxCell>
        <mxCell id="BsdPuGOq0RU-ons4GqNr-6" value="" style="shape=partialRectangle;connectable=0;fillColor=none;top=0;left=0;bottom=0;right=0;editable=1;overflow=hidden;" vertex="1" parent="BsdPuGOq0RU-ons4GqNr-5">
          <mxGeometry width="30" height="20" as="geometry" />
        </mxCell>
        <mxCell id="BsdPuGOq0RU-ons4GqNr-7" value="Nombre" style="shape=partialRectangle;connectable=0;fillColor=none;top=0;left=0;bottom=0;right=0;align=left;spacingLeft=6;overflow=hidden;" vertex="1" parent="BsdPuGOq0RU-ons4GqNr-5">
          <mxGeometry x="30" width="130" height="20" as="geometry" />
        </mxCell>
        <mxCell id="BsdPuGOq0RU-ons4GqNr-8" value="" style="shape=partialRectangle;collapsible=0;dropTarget=0;pointerEvents=0;fillColor=none;top=0;left=0;bottom=0;right=0;points=[[0,0.5],[1,0.5]];portConstraint=eastwest;" vertex="1" parent="BsdPuGOq0RU-ons4GqNr-1">
          <mxGeometry y="80" width="160" height="20" as="geometry" />
        </mxCell>
        <mxCell id="BsdPuGOq0RU-ons4GqNr-9" value="" style="shape=partialRectangle;connectable=0;fillColor=none;top=0;left=0;bottom=0;right=0;editable=1;overflow=hidden;" vertex="1" parent="BsdPuGOq0RU-ons4GqNr-8">
          <mxGeometry width="30" height="20" as="geometry" />
        </mxCell>
        <mxCell id="BsdPuGOq0RU-ons4GqNr-10" value="Correo" style="shape=partialRectangle;connectable=0;fillColor=none;top=0;left=0;bottom=0;right=0;align=left;spacingLeft=6;overflow=hidden;" vertex="1" parent="BsdPuGOq0RU-ons4GqNr-8">
          <mxGeometry x="30" width="130" height="20" as="geometry" />
        </mxCell>
        <mxCell id="BsdPuGOq0RU-ons4GqNr-11" value="" style="shape=partialRectangle;collapsible=0;dropTarget=0;pointerEvents=0;fillColor=none;top=0;left=0;bottom=0;right=0;points=[[0,0.5],[1,0.5]];portConstraint=eastwest;" vertex="1" parent="BsdPuGOq0RU-ons4GqNr-1">
          <mxGeometry y="100" width="160" height="20" as="geometry" />
        </mxCell>
        <mxCell id="BsdPuGOq0RU-ons4GqNr-12" value="" style="shape=partialRectangle;connectable=0;fillColor=none;top=0;left=0;bottom=0;right=0;editable=1;overflow=hidden;" vertex="1" parent="BsdPuGOq0RU-ons4GqNr-11">
          <mxGeometry width="30" height="20" as="geometry" />
        </mxCell>
        <mxCell id="BsdPuGOq0RU-ons4GqNr-13" value="Telefono" style="shape=partialRectangle;connectable=0;fillColor=none;top=0;left=0;bottom=0;right=0;align=left;spacingLeft=6;overflow=hidden;" vertex="1" parent="BsdPuGOq0RU-ons4GqNr-11">
          <mxGeometry x="30" width="130" height="20" as="geometry" />
        </mxCell>
        <mxCell id="BsdPuGOq0RU-ons4GqNr-34" value="Producto" style="shape=table;startSize=30;container=1;collapsible=1;childLayout=tableLayout;fixedRows=1;rowLines=0;fontStyle=1;align=center;resizeLast=1;fillColor=#dae8fc;strokeColor=#000099;" vertex="1" parent="1">
          <mxGeometry x="520" y="280" width="160" height="160" as="geometry" />
        </mxCell>
        <mxCell id="BsdPuGOq0RU-ons4GqNr-35" value="" style="shape=partialRectangle;collapsible=0;dropTarget=0;pointerEvents=0;fillColor=none;top=0;left=0;bottom=1;right=0;points=[[0,0.5],[1,0.5]];portConstraint=eastwest;" vertex="1" parent="BsdPuGOq0RU-ons4GqNr-34">
          <mxGeometry y="30" width="160" height="30" as="geometry" />
        </mxCell>
        <mxCell id="BsdPuGOq0RU-ons4GqNr-36" value="PK" style="shape=partialRectangle;connectable=0;fillColor=none;top=0;left=0;bottom=0;right=0;fontStyle=1;overflow=hidden;" vertex="1" parent="BsdPuGOq0RU-ons4GqNr-35">
          <mxGeometry width="30" height="30" as="geometry" />
        </mxCell>
        <mxCell id="BsdPuGOq0RU-ons4GqNr-37" value="CodProducto" style="shape=partialRectangle;connectable=0;fillColor=none;top=0;left=0;bottom=0;right=0;align=left;spacingLeft=6;fontStyle=5;overflow=hidden;" vertex="1" parent="BsdPuGOq0RU-ons4GqNr-35">
          <mxGeometry x="30" width="130" height="30" as="geometry" />
        </mxCell>
        <mxCell id="BsdPuGOq0RU-ons4GqNr-38" value="" style="shape=partialRectangle;collapsible=0;dropTarget=0;pointerEvents=0;fillColor=none;top=0;left=0;bottom=0;right=0;points=[[0,0.5],[1,0.5]];portConstraint=eastwest;" vertex="1" parent="BsdPuGOq0RU-ons4GqNr-34">
          <mxGeometry y="60" width="160" height="20" as="geometry" />
        </mxCell>
        <mxCell id="BsdPuGOq0RU-ons4GqNr-39" value="" style="shape=partialRectangle;connectable=0;fillColor=none;top=0;left=0;bottom=0;right=0;editable=1;overflow=hidden;" vertex="1" parent="BsdPuGOq0RU-ons4GqNr-38">
          <mxGeometry width="30" height="20" as="geometry" />
        </mxCell>
        <mxCell id="BsdPuGOq0RU-ons4GqNr-40" value="Nombre" style="shape=partialRectangle;connectable=0;fillColor=none;top=0;left=0;bottom=0;right=0;align=left;spacingLeft=6;overflow=hidden;" vertex="1" parent="BsdPuGOq0RU-ons4GqNr-38">
          <mxGeometry x="30" width="130" height="20" as="geometry" />
        </mxCell>
        <mxCell id="BsdPuGOq0RU-ons4GqNr-41" value="" style="shape=partialRectangle;collapsible=0;dropTarget=0;pointerEvents=0;fillColor=none;top=0;left=0;bottom=0;right=0;points=[[0,0.5],[1,0.5]];portConstraint=eastwest;" vertex="1" parent="BsdPuGOq0RU-ons4GqNr-34">
          <mxGeometry y="80" width="160" height="20" as="geometry" />
        </mxCell>
        <mxCell id="BsdPuGOq0RU-ons4GqNr-42" value="" style="shape=partialRectangle;connectable=0;fillColor=none;top=0;left=0;bottom=0;right=0;editable=1;overflow=hidden;" vertex="1" parent="BsdPuGOq0RU-ons4GqNr-41">
          <mxGeometry width="30" height="20" as="geometry" />
        </mxCell>
        <mxCell id="BsdPuGOq0RU-ons4GqNr-43" value="Cantidad" style="shape=partialRectangle;connectable=0;fillColor=none;top=0;left=0;bottom=0;right=0;align=left;spacingLeft=6;overflow=hidden;" vertex="1" parent="BsdPuGOq0RU-ons4GqNr-41">
          <mxGeometry x="30" width="130" height="20" as="geometry" />
        </mxCell>
        <mxCell id="BsdPuGOq0RU-ons4GqNr-44" value="" style="shape=partialRectangle;collapsible=0;dropTarget=0;pointerEvents=0;fillColor=none;top=0;left=0;bottom=0;right=0;points=[[0,0.5],[1,0.5]];portConstraint=eastwest;" vertex="1" parent="BsdPuGOq0RU-ons4GqNr-34">
          <mxGeometry y="100" width="160" height="20" as="geometry" />
        </mxCell>
        <mxCell id="BsdPuGOq0RU-ons4GqNr-45" value="" style="shape=partialRectangle;connectable=0;fillColor=none;top=0;left=0;bottom=0;right=0;editable=1;overflow=hidden;" vertex="1" parent="BsdPuGOq0RU-ons4GqNr-44">
          <mxGeometry width="30" height="20" as="geometry" />
        </mxCell>
        <mxCell id="BsdPuGOq0RU-ons4GqNr-46" value="Imagen" style="shape=partialRectangle;connectable=0;fillColor=none;top=0;left=0;bottom=0;right=0;align=left;spacingLeft=6;overflow=hidden;" vertex="1" parent="BsdPuGOq0RU-ons4GqNr-44">
          <mxGeometry x="30" width="130" height="20" as="geometry" />
        </mxCell>
        <mxCell id="BsdPuGOq0RU-ons4GqNr-70" value="Pedido" style="shape=table;startSize=30;container=1;collapsible=1;childLayout=tableLayout;fixedRows=1;rowLines=0;fontStyle=1;align=center;resizeLast=1;fillColor=#f8cecc;strokeColor=#CC0000;" vertex="1" parent="1">
          <mxGeometry x="120" y="280" width="160" height="160" as="geometry" />
        </mxCell>
        <mxCell id="BsdPuGOq0RU-ons4GqNr-71" value="" style="shape=partialRectangle;collapsible=0;dropTarget=0;pointerEvents=0;fillColor=none;top=0;left=0;bottom=1;right=0;points=[[0,0.5],[1,0.5]];portConstraint=eastwest;" vertex="1" parent="BsdPuGOq0RU-ons4GqNr-70">
          <mxGeometry y="30" width="160" height="30" as="geometry" />
        </mxCell>
        <mxCell id="BsdPuGOq0RU-ons4GqNr-72" value="PK" style="shape=partialRectangle;connectable=0;fillColor=none;top=0;left=0;bottom=0;right=0;fontStyle=1;overflow=hidden;" vertex="1" parent="BsdPuGOq0RU-ons4GqNr-71">
          <mxGeometry width="30" height="30" as="geometry" />
        </mxCell>
        <mxCell id="BsdPuGOq0RU-ons4GqNr-73" value="CÃ³digo" style="shape=partialRectangle;connectable=0;fillColor=none;top=0;left=0;bottom=0;right=0;align=left;spacingLeft=6;fontStyle=5;overflow=hidden;" vertex="1" parent="BsdPuGOq0RU-ons4GqNr-71">
          <mxGeometry x="30" width="130" height="30" as="geometry" />
        </mxCell>
        <mxCell id="BsdPuGOq0RU-ons4GqNr-74" value="" style="shape=partialRectangle;collapsible=0;dropTarget=0;pointerEvents=0;fillColor=none;top=0;left=0;bottom=0;right=0;points=[[0,0.5],[1,0.5]];portConstraint=eastwest;" vertex="1" parent="BsdPuGOq0RU-ons4GqNr-70">
          <mxGeometry y="60" width="160" height="20" as="geometry" />
        </mxCell>
        <mxCell id="BsdPuGOq0RU-ons4GqNr-75" value="FK" style="shape=partialRectangle;connectable=0;fillColor=none;top=0;left=0;bottom=0;right=0;editable=1;overflow=hidden;fontStyle=1" vertex="1" parent="BsdPuGOq0RU-ons4GqNr-74">
          <mxGeometry width="30" height="20" as="geometry" />
        </mxCell>
        <mxCell id="BsdPuGOq0RU-ons4GqNr-76" value="Id_cliente" style="shape=partialRectangle;connectable=0;fillColor=none;top=0;left=0;bottom=0;right=0;align=left;spacingLeft=6;overflow=hidden;" vertex="1" parent="BsdPuGOq0RU-ons4GqNr-74">
          <mxGeometry x="30" width="130" height="20" as="geometry" />
        </mxCell>
        <mxCell id="BsdPuGOq0RU-ons4GqNr-77" value="" style="shape=partialRectangle;collapsible=0;dropTarget=0;pointerEvents=0;fillColor=none;top=0;left=0;bottom=0;right=0;points=[[0,0.5],[1,0.5]];portConstraint=eastwest;" vertex="1" parent="BsdPuGOq0RU-ons4GqNr-70">
          <mxGeometry y="80" width="160" height="20" as="geometry" />
        </mxCell>
        <mxCell id="BsdPuGOq0RU-ons4GqNr-78" value="" style="shape=partialRectangle;connectable=0;fillColor=none;top=0;left=0;bottom=0;right=0;editable=1;overflow=hidden;" vertex="1" parent="BsdPuGOq0RU-ons4GqNr-77">
          <mxGeometry width="30" height="20" as="geometry" />
        </mxCell>
        <mxCell id="BsdPuGOq0RU-ons4GqNr-79" value="Fecha" style="shape=partialRectangle;connectable=0;fillColor=none;top=0;left=0;bottom=0;right=0;align=left;spacingLeft=6;overflow=hidden;" vertex="1" parent="BsdPuGOq0RU-ons4GqNr-77">
          <mxGeometry x="30" width="130" height="20" as="geometry" />
        </mxCell>
        <mxCell id="BsdPuGOq0RU-ons4GqNr-80" value="" style="shape=partialRectangle;collapsible=0;dropTarget=0;pointerEvents=0;fillColor=none;top=0;left=0;bottom=0;right=0;points=[[0,0.5],[1,0.5]];portConstraint=eastwest;" vertex="1" parent="BsdPuGOq0RU-ons4GqNr-70">
          <mxGeometry y="100" width="160" height="30" as="geometry" />
        </mxCell>
        <mxCell id="BsdPuGOq0RU-ons4GqNr-81" value="" style="shape=partialRectangle;connectable=0;fillColor=none;top=0;left=0;bottom=0;right=0;editable=1;overflow=hidden;" vertex="1" parent="BsdPuGOq0RU-ons4GqNr-80">
          <mxGeometry width="30" height="30" as="geometry" />
        </mxCell>
        <mxCell id="BsdPuGOq0RU-ons4GqNr-82" value="" style="shape=partialRectangle;connectable=0;fillColor=none;top=0;left=0;bottom=0;right=0;align=left;spacingLeft=6;overflow=hidden;" vertex="1" parent="BsdPuGOq0RU-ons4GqNr-80">
          <mxGeometry x="30" width="130" height="30" as="geometry" />
        </mxCell>
        <mxCell id="BsdPuGOq0RU-ons4GqNr-99" value="DetallePedido" style="shape=table;startSize=30;container=1;collapsible=1;childLayout=tableLayout;fixedRows=1;rowLines=0;fontStyle=1;align=center;resizeLast=1;fillColor=#d5e8d4;strokeColor=#009900;" vertex="1" parent="1">
          <mxGeometry x="320" y="280" width="160" height="160" as="geometry" />
        </mxCell>
        <mxCell id="BsdPuGOq0RU-ons4GqNr-100" value="" style="shape=partialRectangle;collapsible=0;dropTarget=0;pointerEvents=0;fillColor=none;top=0;left=0;bottom=1;right=0;points=[[0,0.5],[1,0.5]];portConstraint=eastwest;" vertex="1" parent="BsdPuGOq0RU-ons4GqNr-99">
          <mxGeometry y="30" width="160" height="30" as="geometry" />
        </mxCell>
        <mxCell id="BsdPuGOq0RU-ons4GqNr-101" value="PK" style="shape=partialRectangle;connectable=0;fillColor=none;top=0;left=0;bottom=0;right=0;fontStyle=1;overflow=hidden;" vertex="1" parent="BsdPuGOq0RU-ons4GqNr-100">
          <mxGeometry width="30" height="30" as="geometry" />
        </mxCell>
        <mxCell id="BsdPuGOq0RU-ons4GqNr-102" value="Secuencia" style="shape=partialRectangle;connectable=0;fillColor=none;top=0;left=0;bottom=0;right=0;align=left;spacingLeft=6;fontStyle=5;overflow=hidden;" vertex="1" parent="BsdPuGOq0RU-ons4GqNr-100">
          <mxGeometry x="30" width="130" height="30" as="geometry" />
        </mxCell>
        <mxCell id="BsdPuGOq0RU-ons4GqNr-103" value="" style="shape=partialRectangle;collapsible=0;dropTarget=0;pointerEvents=0;fillColor=none;top=0;left=0;bottom=0;right=0;points=[[0,0.5],[1,0.5]];portConstraint=eastwest;" vertex="1" parent="BsdPuGOq0RU-ons4GqNr-99">
          <mxGeometry y="60" width="160" height="20" as="geometry" />
        </mxCell>
        <mxCell id="BsdPuGOq0RU-ons4GqNr-104" value="FK" style="shape=partialRectangle;connectable=0;fillColor=none;top=0;left=0;bottom=0;right=0;editable=1;overflow=hidden;fontStyle=1" vertex="1" parent="BsdPuGOq0RU-ons4GqNr-103">
          <mxGeometry width="30" height="20" as="geometry" />
        </mxCell>
        <mxCell id="BsdPuGOq0RU-ons4GqNr-105" value="Id_Pedido" style="shape=partialRectangle;connectable=0;fillColor=none;top=0;left=0;bottom=0;right=0;align=left;spacingLeft=6;overflow=hidden;" vertex="1" parent="BsdPuGOq0RU-ons4GqNr-103">
          <mxGeometry x="30" width="130" height="20" as="geometry" />
        </mxCell>
        <mxCell id="BsdPuGOq0RU-ons4GqNr-106" value="" style="shape=partialRectangle;collapsible=0;dropTarget=0;pointerEvents=0;fillColor=none;top=0;left=0;bottom=0;right=0;points=[[0,0.5],[1,0.5]];portConstraint=eastwest;" vertex="1" parent="BsdPuGOq0RU-ons4GqNr-99">
          <mxGeometry y="80" width="160" height="20" as="geometry" />
        </mxCell>
        <mxCell id="BsdPuGOq0RU-ons4GqNr-107" value="FK" style="shape=partialRectangle;connectable=0;fillColor=none;top=0;left=0;bottom=0;right=0;editable=1;overflow=hidden;" vertex="1" parent="BsdPuGOq0RU-ons4GqNr-106">
          <mxGeometry width="30" height="20" as="geometry" />
        </mxCell>
        <mxCell id="BsdPuGOq0RU-ons4GqNr-108" value="Id_Producto" style="shape=partialRectangle;connectable=0;fillColor=none;top=0;left=0;bottom=0;right=0;align=left;spacingLeft=6;overflow=hidden;" vertex="1" parent="BsdPuGOq0RU-ons4GqNr-106">
          <mxGeometry x="30" width="130" height="20" as="geometry" />
        </mxCell>
        <mxCell id="BsdPuGOq0RU-ons4GqNr-109" value="" style="shape=partialRectangle;collapsible=0;dropTarget=0;pointerEvents=0;fillColor=none;top=0;left=0;bottom=0;right=0;points=[[0,0.5],[1,0.5]];portConstraint=eastwest;" vertex="1" parent="BsdPuGOq0RU-ons4GqNr-99">
          <mxGeometry y="100" width="160" height="20" as="geometry" />
        </mxCell>
        <mxCell id="BsdPuGOq0RU-ons4GqNr-110" value="" style="shape=partialRectangle;connectable=0;fillColor=none;top=0;left=0;bottom=0;right=0;editable=1;overflow=hidden;" vertex="1" parent="BsdPuGOq0RU-ons4GqNr-109">
          <mxGeometry width="30" height="20" as="geometry" />
        </mxCell>
        <mxCell id="BsdPuGOq0RU-ons4GqNr-111" value="Cantidad" style="shape=partialRectangle;connectable=0;fillColor=none;top=0;left=0;bottom=0;right=0;align=left;spacingLeft=6;overflow=hidden;" vertex="1" parent="BsdPuGOq0RU-ons4GqNr-109">
          <mxGeometry x="30" width="130" height="20" as="geometry" />
        </mxCell>
        <mxCell id="BsdPuGOq0RU-ons4GqNr-115" value="" style="fontSize=12;html=1;endArrow=ERoneToMany;startArrow=ERmandOne;exitX=0.5;exitY=1;exitDx=0;exitDy=0;entryX=0.5;entryY=0;entryDx=0;entryDy=0;" edge="1" parent="1" source="BsdPuGOq0RU-ons4GqNr-1" target="BsdPuGOq0RU-ons4GqNr-70">
          <mxGeometry width="100" height="100" relative="1" as="geometry">
            <mxPoint x="460" y="430" as="sourcePoint" />
            <mxPoint x="560" y="330" as="targetPoint" />
          </mxGeometry>
        </mxCell>
        <mxCell id="BsdPuGOq0RU-ons4GqNr-116" value="" style="fontSize=12;html=1;endArrow=ERoneToMany;startArrow=ERmandOne;entryX=0;entryY=0.5;entryDx=0;entryDy=0;exitX=1;exitY=0.5;exitDx=0;exitDy=0;" edge="1" parent="1" source="BsdPuGOq0RU-ons4GqNr-77" target="BsdPuGOq0RU-ons4GqNr-106">
          <mxGeometry width="100" height="100" relative="1" as="geometry">
            <mxPoint x="300" y="370" as="sourcePoint" />
            <mxPoint x="350" y="360" as="targetPoint" />
          </mxGeometry>
        </mxCell>
        <mxCell id="BsdPuGOq0RU-ons4GqNr-118" value="" style="fontSize=12;html=1;endArrow=ERoneToMany;startArrow=ERone;exitX=0;exitY=0.5;exitDx=0;exitDy=0;entryX=1;entryY=0.5;entryDx=0;entryDy=0;startFill=0;" edge="1" parent="1" source="BsdPuGOq0RU-ons4GqNr-41" target="BsdPuGOq0RU-ons4GqNr-106">
          <mxGeometry width="100" height="100" relative="1" as="geometry">
            <mxPoint x="230" y="270" as="sourcePoint" />
            <mxPoint x="230" y="310" as="targetPoint" />
          </mxGeometry>
        </mxCell>
        <mxCell id="BsdPuGOq0RU-ons4GqNr-122" value="" style="endArrow=none;html=1;" edge="1" parent="1">
          <mxGeometry width="50" height="50" relative="1" as="geometry">
            <mxPoint x="80" y="40" as="sourcePoint" />
            <mxPoint x="720" y="40" as="targetPoint" />
          </mxGeometry>
        </mxCell>
        <mxCell id="BsdPuGOq0RU-ons4GqNr-123" value="" style="endArrow=none;html=1;" edge="1" parent="1">
          <mxGeometry width="50" height="50" relative="1" as="geometry">
            <mxPoint x="720" y="482.3529411764706" as="sourcePoint" />
            <mxPoint x="720" y="40" as="targetPoint" />
          </mxGeometry>
        </mxCell>
        <mxCell id="BsdPuGOq0RU-ons4GqNr-124" value="" style="endArrow=none;html=1;" edge="1" parent="1">
          <mxGeometry width="50" height="50" relative="1" as="geometry">
            <mxPoint x="80" y="480" as="sourcePoint" />
            <mxPoint x="720" y="482.3529411764706" as="targetPoint" />
          </mxGeometry>
        </mxCell>
        <mxCell id="BsdPuGOq0RU-ons4GqNr-125" value="" style="endArrow=none;html=1;" edge="1" parent="1">
          <mxGeometry width="50" height="50" relative="1" as="geometry">
            <mxPoint x="80" y="40" as="sourcePoint" />
            <mxPoint x="80" y="480" as="targetPoint" />
          </mxGeometry>
        </mxCell>
      </root>
    </mxGraphModel>
  </diagram>
</mxfile>
